<svg width="28" height="28" viewBox="0 0 28 28" fill="none" xmlns="http://www.w3.org/2000/svg">
<path fill-rule="evenodd" clip-rule="evenodd" d="M14 28C21.732 28 28 21.732 28 14C28 6.26801 21.732 0 14 0C6.26801 0 0 6.26801 0 14C0 21.732 6.26801 28 14 28ZM22.9428 10.2761C23.4635 9.75544 23.4635 8.91122 22.9428 8.39052C22.4221 7.86983 21.5779 7.86983 21.0572 8.39052L12 17.4477L7.60948 13.0572C7.08878 12.5365 6.24456 12.5365 5.72386 13.0572C5.20316 13.5779 5.20316 14.4221 5.72386 14.9428L12 21.219L22.9428 10.2761Z" fill="#0F69EF"/>
</svg>
