<svg width="324" height="91" viewBox="0 0 324 91" fill="none" xmlns="http://www.w3.org/2000/svg">
<path d="M60.7104 43.5673L12.1993 23.9508C10.8235 23.4641 9.64059 23.483 8.66577 23.7838L8.22301 23.9449C5.94117 24.9067 4.18468 27.8337 4.59367 31.4788C4.98619 34.9774 7.46869 39.1833 13.8824 41.9024L60.6869 60.8289L106.238 41.9L110.828 43.3935C115.827 44.8383 119.287 49.8914 119.187 55.4035C119.083 61.1242 115.251 66.9323 106.656 70.4551L61.3847 90.1479C61.2796 90.1958 61.1734 90.2419 61.0663 90.2858C58.8449 91.1981 56.2948 91.2646 53.675 90.3218L4.56975 70.4669V66.253L55.2318 86.0566C56.848 86.633 58.22 86.5412 59.3246 86.093L59.5502 85.9947C61.8747 84.9147 63.6115 81.8501 63.1356 78.1136C62.6782 74.5235 60.0897 70.256 53.5583 67.4894L53.5585 67.489L4.52347 46.5832L8.71371 44.1695L6.43771 42.7752C2.53995 39.6889 0.515048 35.8172 0.0851319 31.9855C-0.500557 26.7655 1.96649 21.6062 6.53907 19.7281C6.75649 19.6388 6.97805 19.5574 7.20351 19.4843L60.7554 0L113.01 21.8342L60.7104 43.5673Z" fill="white"/>
<path d="M140.859 52.6178H149.935C150.114 54.143 150.809 55.5336 152.019 56.7896C153.274 58.0007 154.91 58.9652 156.927 59.6829C158.944 60.3557 161.207 60.6922 163.717 60.6922C166.003 60.6922 167.885 60.4455 169.364 59.952C170.843 59.4586 171.941 58.7633 172.658 57.8662C173.375 56.969 173.734 55.8924 173.734 54.6364C173.734 53.4253 173.286 52.5057 172.389 51.8777C171.493 51.2048 170.081 50.6665 168.154 50.2628C166.227 49.8142 163.694 49.3657 160.557 48.9171C158.092 48.5582 155.762 48.0648 153.565 47.4368C151.369 46.7639 149.42 45.9116 147.717 44.8799C146.058 43.8482 144.736 42.5922 143.75 41.1119C142.809 39.5867 142.338 37.7924 142.338 35.729C142.338 33.1721 143.055 30.9292 144.49 29.0004C145.969 27.0715 148.142 25.5688 151.011 24.4922C153.879 23.4156 157.397 22.8773 161.566 22.8773C167.84 22.8773 172.658 24.223 176.02 26.9145C179.426 29.5611 181.084 33.217 180.994 37.8821H172.255C172.076 35.2356 170.955 33.3291 168.893 32.1628C166.877 30.9965 164.322 30.4134 161.229 30.4134C158.361 30.4134 155.986 30.8395 154.103 31.6918C152.266 32.5441 151.347 34.002 151.347 36.0654C151.347 36.8729 151.571 37.5906 152.019 38.2186C152.467 38.8017 153.229 39.3176 154.305 39.7662C155.381 40.2147 156.837 40.6409 158.675 41.0446C160.512 41.4483 162.798 41.852 165.532 42.2558C168.087 42.6146 170.395 43.108 172.457 43.736C174.563 44.3192 176.356 45.1042 177.835 46.0911C179.359 47.0331 180.524 48.2442 181.331 49.7245C182.137 51.2048 182.541 53.0216 182.541 55.1747C182.541 57.8213 181.846 60.1315 180.457 62.1052C179.112 64.0341 177.006 65.5368 174.137 66.6134C171.314 67.6899 167.638 68.2282 163.112 68.2282C159.885 68.2282 157.039 67.8918 154.574 67.2189C152.109 66.5012 149.98 65.5592 148.187 64.3929C146.394 63.2266 144.938 61.9482 143.817 60.5576C142.697 59.167 141.89 57.7764 141.397 56.3859C140.949 54.9953 140.77 53.7393 140.859 52.6178Z" fill="white"/>
<path d="M219.808 67.2862V48.9171C219.808 47.0779 219.494 45.5528 218.866 44.3416C218.239 43.1305 217.231 42.2109 215.841 41.5829C214.497 40.9549 212.681 40.6409 210.396 40.6409C208.2 40.6409 206.205 41.067 204.412 41.9193C202.62 42.7268 201.163 43.8033 200.043 45.1491C198.922 46.4499 198.295 47.8405 198.16 49.3208L198.093 45.6201C198.317 44.1398 198.832 42.6595 199.639 41.1792C200.446 39.6989 201.522 38.3532 202.866 37.142C204.211 35.9308 205.824 34.9664 207.707 34.2487C209.634 33.4861 211.785 33.1048 214.16 33.1048C216.222 33.1048 218.127 33.374 219.875 33.9123C221.623 34.4057 223.147 35.1907 224.446 36.2673C225.746 37.3439 226.755 38.6896 227.472 40.3045C228.189 41.8745 228.547 43.7361 228.547 45.8892V67.2862H219.808ZM189.891 67.2862V20.3877H198.631V67.2862H189.891Z" fill="white"/>
<path d="M266.944 56.184H275.415C275.057 58.4717 274.093 60.5128 272.524 62.3071C271.001 64.1014 268.916 65.5144 266.272 66.5461C263.628 67.5778 260.401 68.0937 256.591 68.0937C252.334 68.0937 248.569 67.4208 245.297 66.0751C242.025 64.6845 239.471 62.6883 237.633 60.0866C235.795 57.4849 234.877 54.3448 234.877 50.6665C234.877 46.9882 235.773 43.8482 237.566 41.2465C239.359 38.5999 241.846 36.5813 245.028 35.1907C248.255 33.8001 252.02 33.1048 256.322 33.1048C260.715 33.1048 264.367 33.8001 267.281 35.1907C270.194 36.5813 272.345 38.6896 273.734 41.5156C275.169 44.2968 275.774 47.8629 275.55 52.2141H243.684C243.908 53.9187 244.535 55.4663 245.566 56.8569C246.642 58.2474 248.076 59.3465 249.868 60.1539C251.706 60.9613 253.88 61.365 256.39 61.365C259.168 61.365 261.477 60.894 263.314 59.952C265.196 58.9652 266.407 57.7092 266.944 56.184ZM255.919 39.7662C252.692 39.7662 250.07 40.4839 248.053 41.9193C246.036 43.3099 244.737 45.0369 244.154 47.1004H266.877C266.653 44.8575 265.577 43.0856 263.65 41.7848C261.768 40.439 259.191 39.7662 255.919 39.7662Z" fill="white"/>
<path d="M282.725 20.3877H291.465V67.2862H282.725V20.3877Z" fill="white"/>
<path d="M296.638 34.4505H323.529V41.1119H296.638V34.4505ZM317.076 20.3877H324V27.4528H319.16C317.86 27.4079 316.739 27.5425 315.798 27.8565C314.857 28.1705 314.14 28.7536 313.647 29.6059C313.154 30.4134 312.907 31.5797 312.907 33.1048V67.2862H304.168V32.0282C304.168 29.3368 304.661 27.1388 305.647 25.4342C306.633 23.6848 308.089 22.4063 310.017 21.5989C311.944 20.7914 314.297 20.3877 317.076 20.3877Z" fill="white"/>
</svg>
