<svg width="172" height="48" viewBox="0 0 172 48" fill="none" xmlns="http://www.w3.org/2000/svg">
<path d="M32.229 22.9806L6.47619 12.6334C5.74581 12.3767 5.11785 12.3867 4.60035 12.5453L4.3653 12.6303C3.15396 13.1376 2.2215 14.6815 2.43861 16.6042C2.64699 18.4496 3.96486 20.6681 7.36967 22.1023L32.2165 32.0856L56.3981 22.1011L58.8345 22.8889C61.4882 23.651 63.3252 26.3163 63.272 29.2238C63.2167 32.2413 61.1829 35.305 56.6199 37.1631L32.5869 47.5505C32.5311 47.5758 32.4748 47.6001 32.4179 47.6233C31.2387 48.1045 29.8849 48.1396 28.4941 47.6422L2.42592 37.1694V34.9467L29.3206 45.3925C30.1786 45.6965 30.9069 45.6481 31.4933 45.4117L31.6131 45.3598C32.8471 44.7902 33.7691 43.1737 33.5164 41.2028C33.2736 39.3091 31.8995 37.0581 28.4322 35.5988L28.4323 35.5986L2.40135 24.5713L4.6258 23.2982L3.41755 22.5628C1.34837 20.9348 0.273421 18.8926 0.0451935 16.8715C-0.265728 14.1181 1.04394 11.3967 3.47136 10.406C3.58678 10.3589 3.7044 10.316 3.82409 10.2774L32.2528 0L59.993 11.517L32.229 22.9806Z" fill="black"/>
<path d="M74.7772 27.7545H79.5952C79.6904 28.5589 80.0591 29.2924 80.7015 29.9549C81.3677 30.5938 82.2362 31.1025 83.3068 31.4811C84.3775 31.836 85.579 32.0135 86.9114 32.0135C88.1248 32.0135 89.1241 31.8833 89.9093 31.6231C90.6945 31.3628 91.2774 30.996 91.6581 30.5228C92.0387 30.0496 92.2291 29.4817 92.2291 28.8192C92.2291 28.1804 91.9911 27.6953 91.5153 27.3641C91.0394 27.0091 90.29 26.7252 89.2669 26.5123C88.2438 26.2756 86.8995 26.039 85.234 25.8024C83.9254 25.6131 82.6882 25.3529 81.5224 25.0216C80.3566 24.6667 79.3216 24.2171 78.4174 23.6729C77.5371 23.1287 76.8352 22.4662 76.3118 21.6854C75.8122 20.8809 75.5623 19.9345 75.5623 18.8461C75.5623 17.4974 75.943 16.3143 76.7044 15.2969C77.4895 14.2795 78.6435 13.4868 80.1662 12.919C81.6889 12.3511 83.5567 12.0672 85.7694 12.0672C89.1003 12.0672 91.6581 12.777 93.4425 14.1967C95.2507 15.5927 96.1311 17.521 96.0835 19.9818H91.4439C91.3487 18.5858 90.7539 17.5802 89.6595 16.965C88.5888 16.3498 87.2326 16.0422 85.5909 16.0422C84.0682 16.0422 82.8072 16.267 81.8079 16.7166C80.8324 17.1661 80.3447 17.9351 80.3447 19.0235C80.3447 19.4494 80.4636 19.828 80.7015 20.1593C80.9395 20.4668 81.3439 20.7389 81.915 20.9756C82.486 21.2122 83.2593 21.437 84.2347 21.6499C85.2103 21.8629 86.4237 22.0758 87.875 22.2887C89.2312 22.478 90.4565 22.7383 91.551 23.0696C92.6692 23.3772 93.6209 23.7912 94.4061 24.3118C95.215 24.8087 95.8337 25.4475 96.2619 26.2283C96.6902 27.0091 96.9043 27.9674 96.9043 29.1031C96.9043 30.4991 96.5355 31.7177 95.798 32.7588C95.0842 33.7762 93.9659 34.5689 92.4432 35.1367C90.9443 35.7046 88.9933 35.9885 86.5902 35.9885C84.8772 35.9885 83.3663 35.8111 82.0577 35.4562C80.7491 35.0776 79.619 34.5807 78.6673 33.9655C77.7156 33.3503 76.9423 32.676 76.3475 31.9425C75.7527 31.209 75.3244 30.4755 75.0627 29.742C74.8248 29.0085 74.7296 28.346 74.7772 27.7545Z" fill="black"/>
<path d="M116.688 35.4916V25.8024C116.688 24.8323 116.521 24.0278 116.188 23.389C115.855 22.7501 115.32 22.2651 114.582 21.9338C113.869 21.6026 112.905 21.4369 111.692 21.4369C110.526 21.4369 109.467 21.6617 108.515 22.1113C107.564 22.5372 106.79 23.1051 106.195 23.8149C105.601 24.5011 105.268 25.2346 105.196 26.0154L105.16 24.0633C105.279 23.2825 105.553 22.5017 105.981 21.7209C106.41 20.9401 106.981 20.2302 107.694 19.5914C108.408 18.9525 109.265 18.4438 110.264 18.0652C111.287 17.663 112.429 17.4619 113.69 17.4619C114.785 17.4619 115.796 17.6039 116.724 17.8878C117.652 18.1481 118.461 18.5621 119.151 19.13C119.841 19.6979 120.376 20.4077 120.757 21.2595C121.137 22.0876 121.328 23.0696 121.328 24.2053V35.4916H116.688ZM100.806 35.4916V10.754H105.446V35.4916H100.806Z" fill="black"/>
<path d="M141.711 29.6355H146.208C146.018 30.8422 145.506 31.9188 144.673 32.8653C143.864 33.8117 142.758 34.557 141.354 35.1012C139.951 35.6454 138.238 35.9175 136.215 35.9175C133.955 35.9175 131.956 35.5626 130.219 34.8528C128.483 34.1193 127.126 33.0664 126.151 31.694C125.175 30.3217 124.688 28.6654 124.688 26.7252C124.688 24.785 125.163 23.1287 126.115 21.7564C127.067 20.3604 128.387 19.2956 130.077 18.5621C131.79 17.8286 133.788 17.4619 136.072 17.4619C138.404 17.4619 140.343 17.8286 141.89 18.5621C143.436 19.2956 144.578 20.4077 145.316 21.8983C146.077 23.3653 146.398 25.2464 146.279 27.5415H129.363C129.482 28.4406 129.815 29.2569 130.362 29.9904C130.933 30.7239 131.695 31.3036 132.646 31.7295C133.622 32.1554 134.776 32.3684 136.108 32.3684C137.583 32.3684 138.809 32.1199 139.784 31.6231C140.783 31.1025 141.426 30.44 141.711 29.6355ZM135.858 20.9756C134.145 20.9756 132.753 21.3541 131.683 22.1113C130.612 22.8448 129.922 23.7557 129.613 24.8441H141.676C141.557 23.6611 140.986 22.7265 139.962 22.0403C138.963 21.3305 137.595 20.9756 135.858 20.9756Z" fill="black"/>
<path d="M150.089 10.754H154.728V35.4916H150.089V10.754Z" fill="black"/>
<path d="M157.475 18.1717H171.75V21.6854H157.475V18.1717ZM168.324 10.754H172V14.4806H169.43C168.74 14.4569 168.146 14.5279 167.646 14.6935C167.146 14.8592 166.766 15.1668 166.504 15.6163C166.242 16.0422 166.111 16.6574 166.111 17.4619V35.4916H161.472V16.894C161.472 15.4744 161.733 14.315 162.257 13.4158C162.78 12.4931 163.554 11.8187 164.577 11.3928C165.6 10.9669 166.849 10.754 168.324 10.754Z" fill="black"/>
</svg>
