<svg>
    <symbol
        id="icon-linkedin"
        viewBox="0 0 36 37"
        xmlns="http://www.w3.org/2000/svg"
    >
        <path
            fill-rule="evenodd"
            clip-rule="evenodd"
            d="M32 36.0312H4C1.79086 36.0312 0 34.2404 0 32.0312V4.03125C0 1.82211 1.79086 0.03125 4 0.03125H32C34.2091 0.03125 36 1.82211 36 4.03125V32.0312C36 34.2404 34.2091 36.0312 32 36.0312ZM25.6578 31.0313H31V20.0569C31 15.4135 28.3678 13.1684 24.6913 13.1684C21.013 13.1684 19.465 16.0327 19.465 16.0327V13.6979H14.3167V31.0313H19.465V21.9323C19.465 19.4943 20.5873 18.0435 22.7354 18.0435C24.7099 18.0435 25.6578 19.4376 25.6578 21.9323V31.0313ZM5 8.22975C5 9.99608 6.42103 11.4283 8.17467 11.4283C9.92832 11.4283 11.3485 9.99608 11.3485 8.22975C11.3485 6.46343 9.92832 5.03125 8.17467 5.03125C6.42103 5.03125 5 6.46343 5 8.22975ZM10.8847 31.0313H5.51628V13.6979H10.8847V31.0313Z"
        />
    </symbol>
    <symbol
        id="icon-instagram"
        viewBox="0 0 36 37"
        xmlns="http://www.w3.org/2000/svg"
    >
        <path
            fill-rule="evenodd"
            clip-rule="evenodd"
            d="M18 3.27575C22.806 3.27575 23.376 3.29375 25.275 3.38075C30.153 3.60275 32.4315 5.91725 32.6535 10.7592C32.7405 12.6567 32.757 13.2268 32.757 18.0328C32.757 22.8403 32.739 23.4088 32.6535 25.3063C32.43 30.1438 30.1575 32.4627 25.275 32.6847C23.376 32.7717 22.809 32.7897 18 32.7897C13.194 32.7897 12.624 32.7717 10.7265 32.6847C5.8365 32.4613 3.57 30.1363 3.348 25.3048C3.261 23.4073 3.243 22.8387 3.243 18.0312C3.243 13.2253 3.2625 12.6567 3.348 10.7577C3.5715 5.91725 5.844 3.60125 10.7265 3.37925C12.6255 3.29375 13.194 3.27575 18 3.27575ZM18 0.03125C13.1115 0.03125 12.4995 0.05225 10.5795 0.13925C4.0425 0.43925 0.4095 4.06625 0.1095 10.6093C0.021 12.5308 0 13.1427 0 18.0312C0 22.9198 0.021 23.5333 0.108 25.4533C0.408 31.9902 4.035 35.6232 10.578 35.9232C12.4995 36.0103 13.1115 36.0312 18 36.0312C22.8885 36.0312 23.502 36.0103 25.422 35.9232C31.953 35.6232 35.595 31.9963 35.8905 25.4533C35.979 23.5333 36 22.9198 36 18.0312C36 13.1427 35.979 12.5308 35.892 10.6108C35.598 4.07975 31.9665 0.44075 25.4235 0.14075C23.502 0.05225 22.8885 0.03125 18 0.03125ZM18 8.78825C12.8955 8.78825 8.757 12.9268 8.757 18.0312C8.757 23.1357 12.8955 27.2757 18 27.2757C23.1045 27.2757 27.243 23.1373 27.243 18.0312C27.243 12.9268 23.1045 8.78825 18 8.78825ZM18 24.0312C14.6865 24.0312 12 21.3463 12 18.0312C12 14.7177 14.6865 12.0312 18 12.0312C21.3135 12.0312 24 14.7177 24 18.0312C24 21.3463 21.3135 24.0312 18 24.0312ZM27.609 6.26375C26.415 6.26375 25.4475 7.23125 25.4475 8.42375C25.4475 9.61625 26.415 10.5837 27.609 10.5837C28.8015 10.5837 29.7675 9.61625 29.7675 8.42375C29.7675 7.23125 28.8015 6.26375 27.609 6.26375Z"
        />
    </symbol>
    <symbol
        id="icon-facebook"
        viewBox="0 0 36 37"
        xmlns="http://www.w3.org/2000/svg"
    >
        <path
            fill-rule="evenodd"
            clip-rule="evenodd"
            d="M26.0602 18.0313L25.0501 23.5318H20.1808V35.8994C29.0933 34.8229 36 27.2341 36 18.0313C36 8.09017 27.9411 0.0312881 18 0.0312881C8.05888 0.0312881 0 8.09017 0 18.0313C0 26.4729 5.81147 33.556 13.6516 35.5012V23.5318L9.93994 23.5318L9.93988 23.5318V18.0313H13.6516V15.6611C13.6516 11.6435 14.8439 9.03933 17.3609 7.72254C18.6822 7.03126 20.3686 6.69474 22.4391 6.69474C23.4369 6.69474 25.0682 6.86596 25.9996 7.05858C26.1327 7.0861 26.2514 7.11406 26.352 7.142C26.3521 7.14201 26.3521 7.142 26.3521 7.14201V12.1282C26.3521 12.1282 26.3521 12.1282 26.352 12.1282V12.1283C26.0334 12.0948 25.5387 12.0738 24.9245 12.0654C24.7198 12.0626 24.5018 12.0612 24.2726 12.0612C24.0881 12.0612 23.9107 12.0656 23.7403 12.0745C23.2715 12.0989 22.855 12.1576 22.4874 12.254C20.8493 12.6834 20.1808 13.8603 20.1808 16.0859V18.0313L26.0601 18.0313L26.0602 18.0313Z"
        />
    </symbol>
    <symbol
        id="icon-youtube"
        viewBox="0 0 36 37"
        xmlns="http://www.w3.org/2000/svg"
    >
        <path
            fill-rule="evenodd"
            clip-rule="evenodd"
            d="M14.9095 30.64C8.05351 30.5138 5.71184 30.4003 4.27251 30.1037C3.2987 29.9067 2.45247 29.4692 1.83199 28.8347C1.35243 28.3545 0.971058 27.6218 0.675177 26.6052C0.421374 25.7583 0.322524 25.0537 0.181596 23.3325C-0.0341369 19.448 -0.0855655 16.2721 0.181596 12.7235C0.402004 10.7639 0.508869 8.43759 1.97291 7.08041C2.66419 6.44523 3.46835 6.03647 4.37136 5.86749C5.78197 5.59967 11.7918 5.38794 18.0133 5.38794C24.2208 5.38794 30.2439 5.59967 31.6559 5.86749C32.784 6.07922 33.8419 6.71373 34.4631 7.53191C35.7989 9.63313 35.8223 12.246 35.9579 14.2898C36.014 15.2636 36.014 20.7931 35.9579 21.7669C35.7468 24.9969 35.5771 26.1397 35.0976 27.3246C34.801 28.0726 34.5479 28.4673 34.1098 28.9048C33.4226 29.578 32.5466 30.0258 31.5984 30.1885C25.6655 30.6347 20.6275 30.7315 14.9095 30.64ZM23.995 17.6613C20.6942 15.8974 17.5337 14.2617 14.3031 12.5686V22.698C17.7027 20.8499 21.2867 19.1568 24.0091 17.6473L23.995 17.6613Z"
        />
    </symbol>
    <symbol
        id="icon-github"
        viewBox="0 0 24 24"
        xmlns="http://www.w3.org/2000/svg"
    >
        <path
            d="M12,2A10,10,0,0,0,8.84,21.5c.5.08.66-.23.66-.5V19.31C6.73,19.91,6.14,18,6.14,18A2.69,2.69,0,0,0,5,16.5c-.91-.62.07-.6.07-.6a2.1,2.1,0,0,1,1.53,1,2.15,2.15,0,0,0,2.91.83,2.16,2.16,0,0,1,.63-1.34C8,16.17,5.62,15.31,5.62,11.5a3.87,3.87,0,0,1,1-2.71,3.58,3.58,0,0,1,.1-2.64s.84-.27,2.75,1a9.63,9.63,0,0,1,5,0c1.91-1.29,2.75-1,2.75-1a3.58,3.58,0,0,1,.1,2.64,3.87,3.87,0,0,1,1,2.71c0,3.82-2.34,4.66-4.57,4.91a2.39,2.39,0,0,1,.69,1.85V21c0,.27.16.59.67.5A10,10,0,0,0,12,2Z"
        ></path>
    </symbol>
</svg>
