<svg width="20" height="20" viewBox="0 0 20 20" fill="none" xmlns="http://www.w3.org/2000/svg">
<path fill-rule="evenodd" clip-rule="evenodd" d="M8.09104 1.41671C8.66845 -0.472233 11.3315 -0.472239 11.909 1.41671L13.3194 6.03069L17.9992 6.03069C19.906 6.03069 20.7281 8.4578 19.2166 9.62503L15.3345 12.6231L16.794 17.3975C17.3649 19.2651 15.2098 20.7661 13.6676 19.5752L10 16.7428L6.33237 19.5752C4.79019 20.7661 2.63514 19.2651 3.20601 17.3975L4.66547 12.6231L0.783362 9.62503C-0.728063 8.4578 0.0939952 6.03069 2.00076 6.03069L6.68063 6.03069L8.09104 1.41671ZM11.4104 6.61901L10 2.00502L8.58959 6.61901C8.33222 7.46097 7.55778 8.03572 6.68063 8.03572L2.00076 8.03572L5.88287 11.0337C6.54322 11.5437 6.81887 12.4117 6.57443 13.2114L5.11497 17.9858L8.7826 15.1534C9.50033 14.5992 10.4997 14.5992 11.2174 15.1534L14.885 17.9858L13.4256 13.2114C13.1811 12.4117 13.4568 11.5437 14.1171 11.0337L17.9992 8.03572L13.3194 8.03572C12.4422 8.03572 11.6678 7.46097 11.4104 6.61901Z" fill="black"/>
</svg>
